#!OML:ASF I:\Actors\actors\Patient Classification 1\Patient 1\Session 1\Subject1.ASF
:FULLY-SPECIFIED
:DEGREES
842
root 0.854629 17.5325 8.57132 34.487 30.957 -10.4178
lowerback 22.6158 1.71749 3.1405
upperback 5.65578 2.77196 -2.73583
thorax -6.10004 1.33267 -5.5308
lowerneck -1.62059 0.0440971 0.03204
upperneck -6.18659 0.511156 7.89541
head -1.69926 0.142236 2.51161
rclavicle -4.45278e-014 9.62118e-014
rhumerus 29.1551 48.7768 -43.0803
rradius 92.9092
rwrist 18.6871
rhand 5.68975 -42.7505
rfingers 7.12502
rthumb 31.0276 -70.1467
lclavicle -4.45278e-014 9.62118e-014
lhumerus 12.7587 -45.7912 42.6233
lradius 82.0677
lwrist 10.9627
lhand -35.8344 -9.06991
lfingers 7.12502
lthumb -8.94998 20.7203
rfemur -28.3588 35.1987 9.13161
rtibia -3.84719
rfoot -59.1235 -46.6003
rtoes 45.5871
lfemur -42.2701 -35.1908 23.8303
ltibia -8.87008
lfoot -1.92918 38.2248
ltoes 6.15093
843
root 0.840486 17.5351 8.58038 33.9095 30.7724 -10.3867
lowerback 22.1941 1.83955 3.17734
upperback 5.28098 2.92479 -2.72995
thorax -6.27338 1.39112 -5.57625
lowerneck -1.34395 -0.042935 -0.0267754
upperneck -6.82337 0.456298 8.03937
head -1.9549 0.0917322 2.58147
rclavicle -1.03368e-014 -7.196e-014
rhumerus 27.7151 49.32 -44.6836
rradius 92.5659
rwrist 19.0819
rhand 5.29232 -42.6781
rfingers 7.12502
rthumb 30.6488 -70.146
lclavicle -1.03368e-014 -7.196e-014
lhumerus 11.6995 -46.6051 43.8856
lradius 81.4945
lwrist 11.0275
lhand -35.4879 -8.80481
lfingers 7.12502
lthumb -8.61567 20.9994
rfemur -27.6341 35.537 9.43059
rtibia -3.85388
rfoot -59.1578 -46.6969
rtoes 45.3947
lfemur -41.47 -35.5556 23.2534
ltibia -8.87943
lfoot -1.99508 38.2225
ltoes 5.9186
844
root 0.827721 17.5376 8.58935 33.3806 30.5856 -10.284
lowerback 21.6958 1.94541 3.21968
upperback 4.93422 3.05338 -2.78456
thorax -6.37311 1.44117 -5.6782
lowerneck -0.707201 -0.146475 0.588882
upperneck -7.91721 0.398954 7.67429
head -2.4201 0.0126039 2.36954
rclavicle -1.51076e-014 -4.09496e-014
rhumerus 26.3508 49.7377 -46.3292
rradius 92.1246
rwrist 19.5516
rhand 4.95755 -42.8993
rfingers 7.12502
rthumb 30.3295 -70.4264
lclavicle -1.51076e-014 -4.09496e-014
lhumerus 10.7037 -47.34 45.0835
lradius 80.8227
lwrist 11.0156
lhand -35.1964 -8.74065
lfingers 7.12502
lthumb -8.33436 21.0749
rfemur -26.923 35.8278 9.65744
rtibia -3.87169
rfoot -59.0867 -46.9418
rtoes 45.0644
lfemur -40.7238 -35.9664 22.6055
ltibia -8.82586
lfoot -2.09888 38.2238
ltoes 5.64324
845
root 0.813942 17.5409 8.59797 32.8436 30.4718 -10.1878
lowerback 21.2375 1.984 3.21447
upperback 4.57618 3.09031 -2.79068
thorax -6.52015 1.44616 -5.67852
lowerneck -0.575284 -0.123028 1.1156
upperneck -8.39363 0.454552 7.30107
head -2.59825 0.0197019 2.15783
rclavicle 0 6.24184e-014
rhumerus 25.2591 50.2116 -47.8104
rradius 91.5889
rwrist 19.9427
rhand 4.33216 -42.8912
rfingers 7.12502
rthumb 29.7328 -70.5265
lclavicle 0 6.24184e-014
lhumerus 9.42615 -47.906 46.4749
lradius 80.1765
lwrist 11.0481
lhand -34.9947 -8.66535
lfingers 7.12502
lthumb -8.13962 21.1579
rfemur -26.2176 36.0672 9.94766
rtibia -3.83246
rfoot -59.1023 -47.0768
rtoes 44.9112
lfemur -40.0285 -36.38 22.0527
ltibia -8.79379
lfoot -2.14035 38.219
ltoes 5.29363
846
root 0.799607 17.5431 8.60839 32.3012 30.3798 -10.118
lowerback 20.759 2.03824 3.20928
upperback 4.19847 3.14867 -2.77862
thorax -6.67477 1.46091 -5.66362
lowerneck -0.589293 -0.0943843 1.21486
upperneck -8.66109 0.525025 7.39588
head -2.68888 0.043682 2.1748
rclavicle -4.45278e-014 -3.49861e-014
rhumerus 23.9868 50.6324 -49.4537
rradius 90.97
rwrist 20.3408
rhand 3.94657 -42.3147
rfingers 7.12502
rthumb 29.3647 -70.0151
lclavicle -4.45278e-014 -3.49861e-014
lhumerus 8.06044 -48.4772 47.9572
lradius 79.6317
lwrist 11.0742
lhand -34.7097 -8.51409
lfingers 7.12502
lthumb -7.86462 21.3196
rfemur -25.5165 36.3089 10.2891
rtibia -3.75337
rfoot -59.2554 -47.0255
rtoes 44.9878
lfemur -39.2906 -36.7691 21.5426
ltibia -8.84629
lfoot -2.2499 38.239
ltoes 5.27884
847
root 0.787 17.5434 8.61902 31.8034 30.3041 -10.0233
lowerback 20.1949 2.06901 3.2347
upperback 3.8274 3.18381 -2.74506
thorax -6.77693 1.46634 -5.63087
lowerneck -0.0600726 -0.0065726 2.87741
upperneck -9.75136 0.637354 5.61583
head -3.13229 0.0581607 1.30886
rclavicle -3.49861e-014 -2.90226e-014
rhumerus 22.6844 51.0199 -51.1685
rradius 90.2409
rwrist 20.8975
rhand 4.75696 -41.1774
rfingers 7.12502
rthumb 30.1381 -68.7395
lclavicle -3.49861e-014 -2.90226e-014
lhumerus 6.53741 -48.9558 49.6292
lradius 79.0995
lwrist 10.9729
lhand -34.3841 -8.58206
lfingers 7.12502
lthumb -7.55032 21.2632
rfemur -24.7916 36.5254 10.6279
rtibia -3.73845
rfoot -59.3655 -47.0093
rtoes 45.0426
lfemur -38.6061 -37.1509 21.0439
ltibia -8.88281
lfoot -2.52734 38.2751
ltoes 5.58561
848
root 0.774752 17.5437 8.62816 31.3045 30.2692 -9.96879
lowerback 19.6651 2.06108 3.32976
upperback 3.45435 3.18454 -2.70164
thorax -6.89777 1.45324 -5.62116
lowerneck -0.40269 0.0308137 3.5022
upperneck -9.57523 0.629345 5.07127
head -3.0006 0.0603597 1.01932
rclavicle -3.89618e-014 3.81667e-014
rhumerus 21.4696 51.3336 -52.908
rradius 89.4324
rwrist 21.4113
rhand 5.08896 -40.4736
rfingers 7.12502
rthumb 30.4548 -67.9776
lclavicle -3.89618e-014 3.81667e-014
lhumerus 5.015 -49.3083 51.3053
lradius 78.5221
lwrist 10.7546
lhand -34.005 -8.56662
lfingers 7.12502
lthumb -7.18436 21.2914
rfemur -24.0913 36.7129 11.0002
rtibia -3.74075
rfoot -59.3981 -47.094
rtoes 44.995
lfemur -38.0427 -37.4943 20.6474
ltibia -8.80538
lfoot -2.7275 38.2717
ltoes 5.41323
